<?xml version="1.0" encoding="utf-8"?>
<!-- Generator: Adobe Illustrator 17.1.0, SVG Export Plug-In . SVG Version: 6.00 Build 0)  -->
<!DOCTYPE svg PUBLIC "-//W3C//DTD SVG 1.1//EN" "http://www.w3.org/Graphics/SVG/1.1/DTD/svg11.dtd">
<svg version="1.1" id="Capa_1" xmlns="http://www.w3.org/2000/svg" xmlns:xlink="http://www.w3.org/1999/xlink" x="0px" y="0px"
	 width="60px" height="60px" viewBox="0 0 60 60" style="enable-background:new 0 0 60 60;" xml:space="preserve">
<style type="text/css">
	.st0{fill:#FFFFFF;}
</style>
<g>
	<g>
		<path class="st0" d="M4.3,20.4l5,7.7c0,0,3.1-5.1,8.9-5.9c0,0,5.4-0.9,6.1,2.4c0,0,0.7,2.9-2.8,4.3c0,0-2.2,1-6,0.5l1.8,7.7
			c0,0,8-3,9.9,4.4c0,0,1.1,4.7-4.5,7.1c0,0-13.4,4.6-22.7-12.2c0,0,4.5,17.2,18.7,20.3c0,0,6,1.3,10.8-4.7c0,0,4.4-6,0.6-14.4
			c0,0,3,3.6,7.1,2.2c0,0,3.6-0.3,6.1-6.3c0,0,2.4-6.7,7.3-7.5c0,0,5.6-0.5,6.1,7.3c0,0,0.4,8.9-8.4,12.7c0,0-7.1,3.2-12.6-4.5
			c0,0-0.6,3.8,1.5,6.9c0,0,5.6,7.2,13.4,3.6c0,0,13-6.6,8.5-21.9c0,0-4-12.4-15.8-10.3c0,0-5.5,1.5-6.9,9c0,0-1.3,5.7-5.6,6.6
			c0,0-2,0.5-4.7-1.6c0,0-2-1.4-3.2-1c0,0,6.6-3.7,4.7-10.1c0,0-2.7-9-10.6-9.3C17,13.5,11.5,13.4,4.3,20.4z"/>
		<path class="st0" d="M22.7,9.1c0,0,3.6,10.3,11.5,10.9c0,0,7.4,0.9,11.9-4.1L41,9C41,9,33.5,20.5,22.7,9.1z"/>
		<polygon class="st0" points="27.2,7.7 32,12.8 36,8.4 32.1,3.2 		"/>
	</g>
</g>
</svg>
